Coordinates
version=1
nRows=16
nColumns=36
inDegrees=yes

Units are S.I. units (second, meters, Newtons, ...)
If the header above contains a line with 'inDegrees', this indicates whether rotational values are in degrees (yes) or radians (no).

endheader
time	pelvis_tilt	pelvis_list	pelvis_rotation	pelvis_tx	pelvis_ty	pelvis_tz	hip_flexion_r	hip_adduction_r	hip_rotation_r	knee_angle_r	knee_angle_r_beta	ankle_angle_r	subtalar_angle_r	mtp_angle_r	hip_flexion_l	hip_adduction_l	hip_rotation_l	knee_angle_l	knee_angle_l_beta	ankle_angle_l	subtalar_angle_l	mtp_angle_l	lumbar_extension	lumbar_bending	lumbar_rotation	arm_flex_r	arm_add_r	arm_rot_r	elbow_flex_r	pro_sup_r	arm_flex_l	arm_add_l	arm_rot_l	elbow_flex_l	pro_sup_l
      1.91000000	    -28.05961361	     -0.38440414	     -3.45564168	     -0.24831048	      0.67412440	     -0.60657895	     81.63526117	     -3.70243151	      4.34210298	     86.97726106	      1.51803958	     24.63047610	    -12.39630478	     -7.47125225	     81.66136359	     -2.66979948	      6.87946911	     87.65597810	      1.52988543	     28.96613878	    -14.67055466	     -7.47125225	    -34.37870447	      1.39696191	     -3.37002504	     29.55214393	    -15.52032829	     10.49524849	     51.25500466	     93.22614481	     34.41973159	    -22.58968088	     14.63371051	     48.99357333	     85.53936067
      1.92000000	    -27.11528791	     -0.41923893	     -3.39094850	     -0.24551133	      0.67883971	     -0.60623169	     79.98101276	     -3.56824242	      4.40424919	     86.46021093	      1.50901535	     24.64506391	    -12.78244895	     -7.47170866	     80.08485427	     -2.70274390	      6.79180152	     87.18637798	      1.52168936	     28.85480179	    -14.67828143	     -7.47170866	    -33.93063022	      1.26937080	     -3.33479163	     33.28012787	    -15.39917671	     10.44678983	     54.66112053	     93.58935700	     39.35393524	    -21.96654789	     15.63309094	     51.88635892	     85.93969754
      1.93000000	    -26.31351861	     -0.46115149	     -3.41688531	     -0.24290220	      0.68351348	     -0.60548720	     78.43883919	     -3.16186430	      4.58680488	     85.82757829	      1.49797383	     24.30549810	    -13.67113410	     -7.47319673	     78.61833004	     -2.74823338	      6.79422849	     86.60537083	      1.51154887	     28.65345399	    -14.84829622	     -7.47319673	    -33.23769091	      0.99691931	     -2.49729264	     36.35882635	    -15.87934111	      9.20178871	     59.42821906	     94.33746014	     45.30346626	    -20.93512694	     18.72694719	     54.13944858	     86.45668722
      1.94000000	    -25.30425604	     -0.53670731	     -3.45593505	     -0.24031866	      0.68884980	     -0.60482580	     76.65752768	     -2.75816105	      4.75677500	     85.15921072	      1.48630862	     24.25623914	    -14.19084261	     -7.47377322	     76.90903308	     -2.81818224	      6.80381848	     86.00505237	      1.50107134	     28.57342200	    -14.99752619	     -7.47377322	    -32.77881613	      0.92861987	     -2.51585646	     40.77187786	    -16.24901416	      9.99911231	     63.69770986	     94.96573657	     50.56358465	    -20.46521309	     20.15716794	     57.55107311	     86.95849629
      1.95000000	    -24.17386233	     -0.54086093	     -3.39560777	     -0.23771934	      0.69479587	     -0.60462454	     74.76338021	     -2.58527193	      4.90352252	     84.46660088	      1.47422029	     23.86780905	    -14.74650921	     -7.47447876	     75.02862453	     -2.74882157	      6.72879084	     85.29594251	      1.48869504	     28.25821938	    -15.13850079	     -7.47447876	    -32.42095811	      0.96481457	     -2.66996881	     45.71765941	    -16.80616137	     11.11510100	     68.17585421	     95.79480201	     56.12279765	    -20.09273713	     22.00692184	     60.78736827	     87.38958719
      1.96000000	    -23.16605230	     -0.53432498	     -3.24679366	     -0.23497583	      0.70098482	     -0.60466044	     72.91174897	     -2.52498225	      5.00263022	     83.64808533	      1.45993450	     23.46802794	    -15.35488510	     -7.47521192	     73.22607174	     -2.64078365	      6.55189325	     84.44317816	      1.47381149	     27.90642312	    -15.38024133	     -7.47521192	    -31.87463560	      1.03707994	     -2.95308951	     51.06464633	    -17.56509229	     12.53893233	     72.44998542	     96.67811008	     61.84894439	    -19.80164218	     23.91128534	     64.01806540	     87.67042578
      1.97000000	    -22.29134367	     -0.54983263	     -3.14328071	     -0.23202896	      0.70759045	     -0.60451602	     71.08240766	     -2.42469424	      5.02113598	     82.65325571	      1.44257145	     23.17488279	    -15.73564223	     -7.47563391	     71.46079289	     -2.58711193	      6.40791829	     83.45437282	      1.45655358	     27.54028533	    -15.46456289	     -7.47563391	    -31.16804572	      1.07243347	     -3.24110295	     56.61760832	    -18.31788556	     13.83857320	     76.49138039	     97.19475004	     67.61437666	    -19.39039818	     25.27006832	     67.22935276	     87.92868192
      1.98000000	    -21.77423976	     -0.59556582	     -3.08797255	     -0.22902603	      0.71431937	     -0.60407241	     69.53149125	     -2.20304116	      5.03312253	     81.43592125	      1.42132496	     22.26732714	    -16.84213066	     -7.47686292	     69.99962236	     -2.59060494	      6.33599128	     82.28394317	      1.43612573	     26.77940487	    -16.00361255	     -7.47686292	    -30.01783542	      1.04000990	     -3.28769757	     62.17163810	    -19.37794596	     15.12062806	     80.53938762	     98.02912495	     73.88512584	    -19.13493273	     27.96158219	     69.97945838	     87.76771773
      1.99000000	    -21.26670384	     -0.68039352	     -3.05044601	     -0.22563249	      0.72199400	     -0.60355441	     67.80838022	     -1.98558712	      5.03094915	     79.99470653	      1.39617101	     21.88683051	    -16.92191268	     -7.47716985	     68.40292723	     -2.68430368	      6.30050957	     80.93603325	      1.41260026	     26.27546272	    -15.83401619	     -7.47716985	    -28.90239443	      1.11934546	     -3.48686470	     68.15301285	    -20.16038187	     16.52499137	     84.29536632	     98.38784373	     79.84132129	    -18.95057943	     29.35247283	     73.08362971	     88.03600349
      2.00000000	    -21.02182192	     -0.78820161	     -3.07095620	     -0.22211555	      0.73008315	     -0.60256477	     66.27780168	     -1.64668600	      4.99270634	     78.33951044	      1.36728239	     21.07404195	    -17.73290590	     -7.47780818	     66.99889471	     -2.94143957	      6.21664805	     79.38975165	      1.38561256	     25.64089898	    -16.09884164	     -7.47780818	    -27.44216379	      1.11827321	     -3.59281522	     74.43948422	    -21.18919174	     18.49195466	     87.35636738	     98.70652637	     86.36172235	    -19.33444181	     32.59026232	     75.73441460	     88.12886760
      2.01000000	    -20.70488837	     -0.87215558	     -3.10259103	     -0.21810891	      0.73949336	     -0.60150979	     64.49778144	     -1.33870845	      4.99631510	     76.41891499	      1.33376168	     20.09236276	    -18.16005046	     -7.47830389	     65.30600944	     -3.24163932	      6.01255668	     77.52373756	      1.35304447	     24.82498455	    -16.11490683	     -7.47830389	    -26.18483160	      1.12849810	     -3.64145727	     80.85336179	    -22.19655628	     20.23154987	     90.42829978	     98.92860588	     92.72515349	    -19.53945288	     34.78800540	     78.44625586	     88.28308363
      2.02000000	    -20.52013100	     -0.89968634	     -3.16353263	     -0.21390381	      0.74982358	     -0.60051839	     62.77874213	     -1.14793153	      4.91506640	     74.25395401	      1.29597598	     18.72229396	    -18.80163236	     -7.47895319	     63.58708881	     -3.48064098	      5.79436819	     75.36315187	      1.31533513	     23.72646438	    -16.35742520	     -7.47895319	    -24.82544502	      1.08900545	     -3.74183016	     87.46031130	    -23.03414728	     22.17689848	     92.97747962	     99.01853460	     99.04940364	    -19.79748574	     36.91293397	     80.82391583	     88.34097045
      2.03000000	    -20.31180943	     -0.89272726	     -3.22340071	     -0.20925139	      0.76161867	     -0.59954716	     60.84379485	     -1.06876755	      4.82557624	     71.75963445	      1.25244189	     17.35751062	    -18.85799952	     -7.47938034	     61.63181597	     -3.76244973	      5.41189955	     72.84908125	      1.27145632	     22.54663252	    -16.24519005	     -7.47938034	    -23.56876033	      1.05739687	     -3.74108284	     94.11143846	    -23.88674022	     24.03564693	     95.37149329	     99.13010910	    104.95281195	    -19.91312272	     38.19872532	     83.20941827	     88.46660933
      2.04000000	    -20.18625201	     -0.92151517	     -3.39206790	     -0.20430031	      0.77465221	     -0.59828950	     58.83810571	     -0.91811076	      4.68912693	     68.91622805	      1.20281509	     15.54152686	    -19.06163121	     -7.47985970	     59.56732078	     -4.18161419	      4.98250636	     69.97764937	      1.22134038	     21.06395971	    -16.27844484	     -7.47985970	    -22.17064627	      1.05454085	     -3.56701561	    100.68798849	    -24.58151197	     26.22430202	     97.17403542	     99.17420062	    110.56466182	    -20.15485410	     39.67596604	     85.17727803	     88.46527822
      2.05000000	    -20.14512731	     -0.96935529	     -3.64370524	     -0.19875076	      0.78915877	     -0.59678082	     56.67983297	     -0.77818054	      4.45310125	     65.61156870	      1.14513790	     13.37345021	    -18.92695825	     -7.47972590	     57.32956535	     -4.73711694	      4.44067160	     66.66427729	      1.16351113	     19.25505149	    -16.09915946	     -7.47972590	    -20.59517546	      1.05007218	     -3.26627909	    106.41514732	    -24.91089300	     27.83784300	     98.79300519	     99.75029482	    115.37054753	    -20.42522754	     40.71062409	     86.99691946	     88.73876422
      2.06000000	    -20.16453984	     -1.08118969	     -3.86221831	     -0.19273210	      0.80492961	     -0.59536299	     54.32298296	     -0.71239774	      4.07542467	     61.82385234	      1.07902978	     10.87201207	    -18.50907090	     -7.47968241	     54.96872663	     -5.32661279	      3.87642735	     62.95878664	      1.09883812	     16.95525435	    -15.79814335	     -7.47968241	    -18.85198441	      1.17866271	     -3.10824813	    111.33978083	    -24.79147281	     29.50901364	     99.98771720	    100.26249896	    119.56996056	    -21.00736790	     41.90199743	     88.62609127	     88.88888291
